<svg width="60" height="55" viewBox="0 0 60 55" fill="none" xmlns="http://www.w3.org/2000/svg">
<path d="M31.875 5.15625C31.875 4.70041 31.6774 4.26324 31.3258 3.94091C30.9742 3.61858 30.4973 3.4375 30 3.4375C29.5027 3.4375 29.0258 3.61858 28.6742 3.94091C28.3225 4.26324 28.125 4.70041 28.125 5.15625V23.1791L26.25 24.4063V16.225C26.25 12.9594 23.3625 10.3125 19.8 10.3125C17.835 10.3125 15.9637 11.2406 14.3887 12.3475C12.7725 13.4888 11.2125 15.0047 9.82872 16.5722C7.06872 19.6934 4.77747 23.2616 3.90372 25.0972C3.24372 26.4894 2.42997 29.0847 1.81872 32.01C1.19997 34.9559 0.757474 38.3934 0.914974 41.4941C1.06497 44.4744 1.78872 47.6472 4.05747 49.5034C6.56997 51.5659 10.14 51.4147 14.3362 49.4897L21.0675 46.4063C22.6247 45.6926 23.9344 44.5955 24.8497 43.2379C25.7651 41.8803 26.2499 40.3159 26.25 38.72V36.0938C26.25 35.6379 26.0524 35.2007 25.7008 34.8784C25.3492 34.5561 24.8723 34.375 24.375 34.375C23.8777 34.375 23.4008 34.5561 23.0492 34.8784C22.6975 35.2007 22.5 35.6379 22.5 36.0938V38.72C22.4999 39.6781 22.2087 40.6172 21.6589 41.432C21.1092 42.2469 20.3226 42.9052 19.3875 43.3331L12.66 46.4166C8.99247 48.0975 7.35372 47.5956 6.55497 46.9391C5.50497 46.0797 4.80372 44.1856 4.66122 41.3359C4.52247 38.6031 4.91622 35.4578 5.50122 32.6563C6.08997 29.8375 6.83997 27.5309 7.34247 26.4688C8.05497 24.9631 10.155 21.6563 12.7425 18.7344C14.025 17.2838 15.3787 15.9878 16.6762 15.0734C18.0187 14.1247 19.0725 13.75 19.8 13.75C20.5161 13.75 21.2028 14.0108 21.7092 14.4749C22.2155 14.9391 22.5 15.5686 22.5 16.225V26.8606L15.7875 31.2606C15.411 31.5346 15.1637 31.9305 15.0966 32.3668C15.0295 32.8031 15.1477 33.2463 15.4269 33.605C15.706 33.9636 16.1247 34.2103 16.5966 34.2941C17.0685 34.3779 17.5574 34.2925 17.9625 34.0553L30 26.1731L42.0375 34.0553C42.2374 34.1948 42.4658 34.2961 42.7092 34.3531C42.9526 34.4101 43.206 34.4217 43.4544 34.3872C43.7028 34.3527 43.9411 34.2727 44.1551 34.1522C44.3692 34.0316 44.5546 33.8728 44.7004 33.6852C44.8462 33.4977 44.9493 33.2852 45.0038 33.0604C45.0582 32.8355 45.0629 32.603 45.0173 32.3765C44.9718 32.15 44.8771 31.9342 44.7389 31.7419C44.6006 31.5497 44.4216 31.3848 44.2125 31.2572L37.5 26.8606V16.225C37.5 15.5686 37.7844 14.9391 38.2908 14.4749C38.7971 14.0108 39.4839 13.75 40.2 13.75C40.9275 13.75 41.9812 14.1281 43.3237 15.0734C44.6212 15.9878 45.9712 17.2838 47.2612 18.7378C49.8412 21.6597 51.9412 24.9631 52.6575 26.4688C53.16 27.5309 53.91 29.8375 54.4987 32.6563C55.0837 35.4544 55.4737 38.6031 55.3387 41.3359C55.1962 44.1856 54.4987 46.0797 53.445 46.9391C52.6462 47.5922 51.0075 48.0975 47.34 46.4166L40.6087 43.3331C39.6743 42.9047 38.8885 42.2462 38.3394 41.4314C37.7903 40.6166 37.4997 39.6777 37.5 38.72V36.0938C37.5 35.6379 37.3024 35.2007 36.9508 34.8784C36.5992 34.5561 36.1223 34.375 35.625 34.375C35.1277 34.375 34.6508 34.5561 34.2991 34.8784C33.9475 35.2007 33.75 35.6379 33.75 36.0938V38.72C33.75 40.3159 34.2349 41.8803 35.1502 43.2379C36.0656 44.5955 37.3752 45.6926 38.9325 46.4063L45.6637 49.4897C49.8637 51.4147 53.4262 51.5625 55.9425 49.5034C58.2112 47.6472 58.935 44.4744 59.085 41.4941C59.2425 38.3934 58.8 34.9559 58.185 32.01C57.57 29.0813 56.76 26.4894 56.0925 25.0938C55.2225 23.2616 52.9312 19.6934 50.1712 16.5722C48.7837 15.0047 47.2275 13.4888 45.6112 12.3475C44.0362 11.2406 42.165 10.3125 40.2 10.3125C36.6375 10.3125 33.75 12.9594 33.75 16.225V24.4063L31.875 23.1791V5.15625Z" fill="black" fill-opacity="0.46"/>
</svg>
