<svg width="336" height="315" viewBox="0 0 336 315" fill="none" xmlns="http://www.w3.org/2000/svg">
<circle cx="79.091" cy="293.864" r="20.4545" stroke="#D9CCE1" stroke-opacity="0.81" stroke-width="1.36364"/>
<circle cx="137.045" cy="293.864" r="20.4545" stroke="#D9CCE1" stroke-opacity="0.81" stroke-width="1.36364"/>
<circle cx="21.1364" cy="293.864" r="20.4545" stroke="#D9CCE1" stroke-opacity="0.81" stroke-width="1.36364"/>
<circle cx="252.954" cy="293.864" r="20.4545" stroke="#D9CCE1" stroke-opacity="0.81" stroke-width="1.36364"/>
<circle cx="195" cy="293.864" r="20.4545" stroke="#D9CCE1" stroke-opacity="0.81" stroke-width="1.36364"/>
<circle cx="310.909" cy="293.864" r="20.4545" stroke="#D9CCE1" stroke-opacity="0.81" stroke-width="1.36364"/>
<circle cx="79.091" cy="21.1364" r="20.4545" stroke="#D9CCE1" stroke-opacity="0.81" stroke-width="1.36364"/>
<circle cx="137.045" cy="21.1364" r="20.4545" stroke="#D9CCE1" stroke-opacity="0.81" stroke-width="1.36364"/>
<circle cx="21.1364" cy="21.1364" r="20.4545" stroke="#D9CCE1" stroke-opacity="0.81" stroke-width="1.36364"/>
<circle cx="252.954" cy="21.1364" r="20.4545" stroke="#D9CCE1" stroke-opacity="0.81" stroke-width="1.36364"/>
<circle cx="195" cy="21.1364" r="20.4545" stroke="#D9CCE1" stroke-opacity="0.81" stroke-width="1.36364"/>
<circle cx="310.909" cy="21.1364" r="20.4545" stroke="#D9CCE1" stroke-opacity="0.81" stroke-width="1.36364"/>
<circle cx="79.091" cy="89.3181" r="20.4545" stroke="#D9CCE1" stroke-opacity="0.81" stroke-width="1.36364"/>
<circle cx="137.045" cy="89.3181" r="20.4545" stroke="#D9CCE1" stroke-opacity="0.81" stroke-width="1.36364"/>
<circle cx="21.1364" cy="89.3183" r="20.4545" stroke="#D9CCE1" stroke-opacity="0.81" stroke-width="1.36364"/>
<circle cx="252.954" cy="89.3181" r="20.4545" stroke="#D9CCE1" stroke-opacity="0.81" stroke-width="1.36364"/>
<circle cx="195" cy="89.3181" r="20.4545" stroke="#D9CCE1" stroke-opacity="0.81" stroke-width="1.36364"/>
<circle cx="310.909" cy="89.3181" r="20.4545" stroke="#D9CCE1" stroke-opacity="0.81" stroke-width="1.36364"/>
<circle cx="79.091" cy="157.5" r="20.4545" stroke="#D9CCE1" stroke-opacity="0.81" stroke-width="1.36364"/>
<circle cx="137.045" cy="157.5" r="20.4545" stroke="#D9CCE1" stroke-opacity="0.81" stroke-width="1.36364"/>
<circle cx="21.1364" cy="157.5" r="20.4545" stroke="#D9CCE1" stroke-opacity="0.81" stroke-width="1.36364"/>
<circle cx="252.954" cy="157.5" r="20.4545" stroke="#D9CCE1" stroke-opacity="0.81" stroke-width="1.36364"/>
<circle cx="195" cy="157.5" r="20.4545" stroke="#D9CCE1" stroke-opacity="0.81" stroke-width="1.36364"/>
<circle cx="310.909" cy="157.5" r="20.4545" stroke="#D9CCE1" stroke-opacity="0.81" stroke-width="1.36364"/>
<circle cx="79.091" cy="225.682" r="20.4545" stroke="#D9CCE1" stroke-opacity="0.81" stroke-width="1.36364"/>
<circle cx="137.045" cy="225.682" r="20.4545" stroke="#D9CCE1" stroke-opacity="0.81" stroke-width="1.36364"/>
<circle cx="21.1364" cy="225.682" r="20.4545" stroke="#D9CCE1" stroke-opacity="0.81" stroke-width="1.36364"/>
<circle cx="252.954" cy="225.682" r="20.4545" stroke="#D9CCE1" stroke-opacity="0.81" stroke-width="1.36364"/>
<circle cx="195" cy="225.682" r="20.4545" stroke="#D9CCE1" stroke-opacity="0.81" stroke-width="1.36364"/>
<circle cx="310.909" cy="225.682" r="20.4545" stroke="#D9CCE1" stroke-opacity="0.81" stroke-width="1.36364"/>
</svg>
