<svg width="60" height="55" viewBox="0 0 60 55" fill="none" xmlns="http://www.w3.org/2000/svg">
<path d="M2.68477 1.62744V7.55605C6.20391 9.7958 11.6121 12.9229 16.3711 15.9414C18.8438 17.5098 21.1406 19.0459 22.8984 20.4316C24.668 21.8066 25.957 22.9023 26.3555 24.2666L26.3906 24.374V24.4814C26.4375 26.1143 26.8242 27.1885 27.3164 27.833C27.8086 28.4775 28.3828 28.7568 29.1445 28.8535C30.6562 29.0576 32.918 28.209 34.6875 26.791C36.4453 25.373 37.6172 23.4717 37.5234 22.043C37.4766 21.334 37.1836 20.7109 36.4219 20.0986C35.6719 19.4863 34.3945 18.9062 32.4492 18.5303C31.043 18.2617 29.1914 17.3057 26.6719 15.9199C24.1523 14.5449 21.1055 12.751 17.9414 10.8496C12.3867 7.49375 6.59297 3.88975 2.68477 1.62744ZM22.4883 1.93359C24.5508 3.15928 28.125 5.37002 31.8516 8.08135C37.582 12.2461 43.5234 17.6602 44.6133 21.7207V21.7314C44.8945 22.8057 45.0234 25.6846 44.9414 29.165C44.8594 32.6348 44.625 36.7812 44.332 40.7666C43.9805 45.6221 43.5586 50.209 43.2891 53.0664H45.4102C45.6797 50.1875 46.0898 45.6758 46.4414 40.8955C46.7227 36.8994 46.9688 32.7314 47.0508 29.1973C47.1328 25.6738 47.0977 22.8809 46.6523 21.2695V21.2588C45.2695 16.1133 39.0117 10.8174 33.1641 6.56563C30.6797 4.75986 28.2539 3.17002 26.2852 1.93359H22.4883ZM2.10938 15.3291V17.9609C7.8457 22.752 15.9961 28.8857 21.3164 32.3877C20.0742 38.7041 20.3086 46.6426 20.4961 53.0664H22.6055C22.4062 46.417 22.1953 38.21 23.4961 32.1514L23.6367 31.5283L23.0742 31.1631C17.4727 27.543 7.9207 20.3027 2.10938 15.3291ZM39.293 18.874L40.2305 27.4248C41.2266 26.8984 41.8477 26.2647 42.2227 25.5986C42.7266 24.6748 42.7852 23.6221 42.5039 22.5693C42.0469 20.958 40.7227 19.4971 39.293 18.874ZM37.125 28.2734C36.8203 28.4561 36.3281 28.8965 35.5781 29.3691C34.1953 30.25 31.8984 31.0664 27.832 30.8516C27.7383 31.7217 28.1367 32.4844 29.0273 33.2686C30.1289 34.2568 32.0039 35.1162 34.207 35.5674L34.5586 35.6426L34.793 35.9004C35.3203 36.502 35.4609 37.1465 35.6719 38.0596C35.8828 38.9727 36.0703 40.1113 36.2344 41.4004C36.5625 43.9893 36.8086 47.2012 36.9844 50.3379C37.0312 51.2617 37.0781 52.1748 37.1133 53.0664H40.5117C40.3711 47.3408 40.4414 40.9062 41.1211 34.1172C41.1328 32.7959 41.0625 31.5068 40.6055 30.4971C40.1484 29.4873 39.3867 28.7354 37.6758 28.1875C37.4531 28.1123 37.2656 28.1875 37.125 28.2734ZM28.1484 35.1377C28.1484 35.4814 28.1602 35.8252 28.1836 36.1689C28.2656 37.6299 28.5703 38.9297 29.0273 39.4775L29.25 39.7461L29.2031 53.0664H31.2891L31.5352 39.3916L31.8047 39.1231C32.4727 38.457 32.7656 37.8877 32.9766 37.2646C31.1133 36.8027 29.4375 36.0938 28.1484 35.1377Z" fill="black" fill-opacity="0.46"/>
</svg>
