<svg width="24" height="24" viewBox="0 0 24 24" fill="none" xmlns="http://www.w3.org/2000/svg">
<circle cx="12" cy="12" r="12" fill="#EFF1FF"/>
<path d="M18.6667 6.66602C18.1467 6.97468 17.1033 7.39535 16.49 7.51668C16.472 7.52135 16.4573 7.52735 16.44 7.53202C15.898 6.99735 15.1553 6.66602 14.3333 6.66602C12.6766 6.66602 11.3333 8.00935 11.3333 9.66602C11.3333 9.75335 11.326 9.91402 11.3333 9.99935C9.09798 9.99935 7.39665 8.82868 6.17665 7.33268C6.04398 7.66602 5.98598 8.19268 5.98598 8.68735C5.98598 9.62135 6.71598 10.5387 7.85265 11.1074C7.64331 11.1614 7.41265 11.2 7.17265 11.2C6.78531 11.2 6.37531 11.098 5.99998 10.7887C5.99998 10.8 5.99998 10.8107 5.99998 10.8227C5.99998 12.128 7.38531 13.0167 8.61731 13.264C8.36731 13.4114 7.86331 13.426 7.61731 13.426C7.44398 13.426 6.83065 13.3467 6.66665 13.316C7.00931 14.386 8.24531 14.9874 9.42331 15.0087C8.50198 15.7314 7.86265 15.9994 5.97598 15.9994H5.33331C6.52531 16.7634 8.04331 17.3334 9.56465 17.3334C14.518 17.3334 17.3333 13.558 17.3333 9.99935C17.3333 9.94202 17.332 9.82202 17.33 9.70135C17.33 9.68935 17.3333 9.67802 17.3333 9.66602C17.3333 9.64802 17.328 9.63068 17.328 9.61268C17.326 9.52202 17.324 9.43735 17.322 9.39335C17.8487 9.01335 18.3053 8.53935 18.6667 7.99935C18.1833 8.21402 17.6647 8.35802 17.12 8.42335C17.676 8.09002 18.466 7.29535 18.6667 6.66602Z" fill="#42276C"/>
</svg>
