<svg width="24" height="24" viewBox="0 0 24 24" fill="none" xmlns="http://www.w3.org/2000/svg">
<circle cx="12" cy="12" r="12" fill="#EFF1FF"/>
<path d="M18.4 15.3C18.2666 16 17.7 16.5333 17 16.6333C15.9 16.8 14.0666 17 12 17C9.96664 17 8.13331 16.8 6.99998 16.6333C6.29998 16.5333 5.73331 16 5.59998 15.3C5.46665 14.5333 5.33331 13.4 5.33331 12C5.33331 10.6 5.46665 9.46667 5.59998 8.7C5.73331 8 6.29998 7.46667 6.99998 7.36667C8.09998 7.2 9.93331 7 12 7C14.0666 7 15.8666 7.2 17 7.36667C17.7 7.46667 18.2666 8 18.4 8.7C18.5333 9.46667 18.7 10.6 18.7 12C18.6666 13.4 18.5333 14.5333 18.4 15.3Z" fill="#42276C"/>
<path d="M10.6666 14.3334V9.66675L14.6666 12.0001L10.6666 14.3334Z" fill="white"/>
</svg>
