<svg width="313" height="315" viewBox="0 0 313 315" fill="none" xmlns="http://www.w3.org/2000/svg">
<circle cx="2.09091" cy="293.864" r="20.4545" stroke="#D9CCE1" stroke-opacity="0.81" stroke-width="1.36364"/>
<circle cx="60.0455" cy="293.864" r="20.4545" stroke="#D9CCE1" stroke-opacity="0.81" stroke-width="1.36364"/>
<circle cx="175.955" cy="293.864" r="20.4545" stroke="#D9CCE1" stroke-opacity="0.81" stroke-width="1.36364"/>
<circle cx="118" cy="293.864" r="20.4545" stroke="#D9CCE1" stroke-opacity="0.81" stroke-width="1.36364"/>
<circle cx="233.909" cy="293.864" r="20.4545" stroke="#D9CCE1" stroke-opacity="0.81" stroke-width="1.36364"/>
<circle cx="291.864" cy="293.864" r="20.4545" stroke="#D9CCE1" stroke-opacity="0.81" stroke-width="1.36364"/>
<circle cx="2.09091" cy="21.1364" r="20.4545" stroke="#D9CCE1" stroke-opacity="0.81" stroke-width="1.36364"/>
<circle cx="60.0455" cy="21.1364" r="20.4545" stroke="#D9CCE1" stroke-opacity="0.81" stroke-width="1.36364"/>
<circle cx="175.955" cy="21.1364" r="20.4545" stroke="#D9CCE1" stroke-opacity="0.81" stroke-width="1.36364"/>
<circle cx="118" cy="21.1364" r="20.4545" stroke="#D9CCE1" stroke-opacity="0.81" stroke-width="1.36364"/>
<circle cx="233.909" cy="21.1364" r="20.4545" stroke="#D9CCE1" stroke-opacity="0.81" stroke-width="1.36364"/>
<circle cx="291.864" cy="21.1364" r="20.4545" stroke="#D9CCE1" stroke-opacity="0.81" stroke-width="1.36364"/>
<circle cx="2.09091" cy="89.3181" r="20.4545" stroke="#D9CCE1" stroke-opacity="0.81" stroke-width="1.36364"/>
<circle cx="60.0455" cy="89.3181" r="20.4545" stroke="#D9CCE1" stroke-opacity="0.81" stroke-width="1.36364"/>
<circle cx="175.955" cy="89.3181" r="20.4545" stroke="#D9CCE1" stroke-opacity="0.81" stroke-width="1.36364"/>
<circle cx="118" cy="89.3181" r="20.4545" stroke="#D9CCE1" stroke-opacity="0.81" stroke-width="1.36364"/>
<circle cx="233.909" cy="89.3181" r="20.4545" stroke="#D9CCE1" stroke-opacity="0.81" stroke-width="1.36364"/>
<circle cx="291.864" cy="89.3181" r="20.4545" stroke="#D9CCE1" stroke-opacity="0.81" stroke-width="1.36364"/>
<circle cx="2.09091" cy="157.5" r="20.4545" stroke="#D9CCE1" stroke-opacity="0.81" stroke-width="1.36364"/>
<circle cx="60.0455" cy="157.5" r="20.4545" stroke="#D9CCE1" stroke-opacity="0.81" stroke-width="1.36364"/>
<circle cx="175.955" cy="157.5" r="20.4545" stroke="#D9CCE1" stroke-opacity="0.81" stroke-width="1.36364"/>
<circle cx="118" cy="157.5" r="20.4545" stroke="#D9CCE1" stroke-opacity="0.81" stroke-width="1.36364"/>
<circle cx="233.909" cy="157.5" r="20.4545" stroke="#D9CCE1" stroke-opacity="0.81" stroke-width="1.36364"/>
<circle cx="291.864" cy="157.5" r="20.4545" stroke="#D9CCE1" stroke-opacity="0.81" stroke-width="1.36364"/>
<circle cx="2.09091" cy="225.682" r="20.4545" stroke="#D9CCE1" stroke-opacity="0.81" stroke-width="1.36364"/>
<circle cx="60.0455" cy="225.682" r="20.4545" stroke="#D9CCE1" stroke-opacity="0.81" stroke-width="1.36364"/>
<circle cx="175.955" cy="225.682" r="20.4545" stroke="#D9CCE1" stroke-opacity="0.81" stroke-width="1.36364"/>
<circle cx="118" cy="225.682" r="20.4545" stroke="#D9CCE1" stroke-opacity="0.81" stroke-width="1.36364"/>
<circle cx="233.909" cy="225.682" r="20.4545" stroke="#D9CCE1" stroke-opacity="0.81" stroke-width="1.36364"/>
<circle cx="291.864" cy="225.682" r="20.4545" stroke="#D9CCE1" stroke-opacity="0.81" stroke-width="1.36364"/>
</svg>
