<svg width="24" height="24" viewBox="0 0 24 24" fill="none" xmlns="http://www.w3.org/2000/svg">
<circle cx="12" cy="12" r="12" fill="#EFF1FF"/>
<path d="M12 5.66675C8.50218 5.66675 5.66666 8.50228 5.66666 12.0001C5.66666 15.4979 8.50218 18.3334 12 18.3334C15.4978 18.3334 18.3333 15.4979 18.3333 12.0001C18.3333 8.50228 15.4978 5.66675 12 5.66675Z" fill="#42276C"/>
<path d="M12.8573 13.6788H14.4963L14.7537 12.0138H12.857V11.1038C12.857 10.4121 13.083 9.79876 13.73 9.79876H14.7697V8.34576C14.587 8.32109 14.2007 8.26709 13.4707 8.26709C11.9463 8.26709 11.0527 9.07209 11.0527 10.9061V12.0138H9.48566V13.6788H11.0527V18.2551C11.363 18.3018 11.6773 18.3334 12 18.3334C12.2917 18.3334 12.5763 18.3068 12.8573 18.2688V13.6788Z" fill="white"/>
</svg>
