<svg width="34" height="22" viewBox="0 0 34 22" fill="none" xmlns="http://www.w3.org/2000/svg">
<path d="M22.6959 20.8667L24.0626 19.2942C24.6734 18.5915 25.3668 17.943 26.1035 17.3797C27.4188 16.374 28.539 15.1414 29.41 13.7417M26.5252 12.4192C26.5879 12.3274 26.6461 12.2378 26.7007 12.1511C27.1495 11.4306 27.2684 10.6069 27.3191 9.80379L27.451 7.73041C27.4808 7.36583 27.6267 7.01995 27.868 6.74243C28.1092 6.46491 28.4332 6.27003 28.7935 6.18575C29.4451 6.04572 30.0537 6.34918 30.2442 6.94942C30.4659 7.64875 30.7162 8.58136 30.7436 9.29595M26.5252 12.4192C26.506 12.4473 26.4866 12.4752 26.4671 12.503M26.5252 12.4192C26.5915 12.282 26.6221 12.1306 26.6143 11.9788C26.6136 11.7961 26.5759 11.6153 26.5033 11.4472C26.4308 11.2792 26.3249 11.1271 26.1918 11.0002C26.0588 10.8732 25.9014 10.7738 25.7289 10.7079C25.5564 10.6419 25.3722 10.6108 25.1873 10.6163C25.0066 10.6206 24.8276 10.6522 24.6567 10.7102C21.7895 11.6593 20.0523 15.4474 19.7761 18.3907M26.5252 12.4192C26.5088 12.4491 26.4894 12.4772 26.4671 12.503M26.4671 12.503C26.1451 12.9588 25.7786 13.3823 25.3729 13.7675" stroke="#41006A" stroke-width="1.74" stroke-linecap="round"/>
<path d="M10.7119 20.8667L9.34519 19.2942C8.73439 18.5915 8.04106 17.943 7.30429 17.3797C5.98897 16.374 4.86876 15.1414 3.99781 13.7417M6.88265 12.4192C6.81995 12.3274 6.76167 12.2378 6.70712 12.1511C6.25832 11.4306 6.13943 10.6069 6.08873 9.80379L5.95684 7.73041C5.92705 7.36583 5.78106 7.01995 5.53985 6.74243C5.29864 6.46491 4.97461 6.27003 4.61428 6.18575C3.96275 6.04572 3.35407 6.34918 3.16363 6.94942C2.94186 7.64875 2.69158 8.58136 2.66417 9.29595M6.88265 12.4192C6.90182 12.4473 6.92118 12.4752 6.94073 12.503M6.88265 12.4192C6.81635 12.282 6.7857 12.1306 6.79348 11.9788C6.79418 11.7961 6.83192 11.6153 6.90448 11.4472C6.97704 11.2792 7.08295 11.1271 7.21596 11.0002C7.34897 10.8732 7.50638 10.7738 7.6789 10.7079C7.85143 10.6419 8.03558 10.6108 8.22048 10.6163C8.40119 10.6206 8.58016 10.6522 8.75113 10.7102C11.6183 11.6593 13.3555 15.4474 13.6317 18.3907M6.88265 12.4192C6.89897 12.4491 6.91843 12.4772 6.94073 12.503M6.94073 12.503C7.26275 12.9588 7.62924 13.3823 8.03494 13.7675" stroke="#41006A" stroke-width="1.74" stroke-linecap="round"/>
<path d="M19.6336 2.92664C20.6094 2.92664 21.4355 3.30065 22.1119 4.04868C22.7889 4.79622 23.1273 5.69893 23.1273 6.75682C23.1273 7.06717 23.0932 7.37653 23.0251 7.68489C22.9575 7.99326 22.8495 8.29143 22.7013 8.5794H18.842L17.5066 6.5054H16.8091L15.558 10.3296L14.3658 8.5794H10.1238C9.97558 8.29143 9.86765 7.9955 9.80001 7.69161C9.73237 7.38822 9.69855 7.08333 9.69855 6.77696C9.69855 5.70564 10.0338 4.79622 10.7042 4.04868C11.3747 3.30115 12.1978 2.92713 13.1736 2.92664C13.6844 2.92664 14.1753 3.03034 14.6463 3.23774C15.1173 3.44563 15.5388 3.74654 15.9108 4.14045L16.4129 4.67163L16.8867 4.1688C17.2652 3.76544 17.6924 3.45757 18.1684 3.2452C18.6443 3.03282 19.1328 2.92664 19.6336 2.92664ZM16.3943 15.3139L11.0384 9.92078C10.9449 9.82728 10.8552 9.73129 10.7691 9.63281C10.6831 9.53433 10.604 9.43188 10.5319 9.32544H13.9659L15.3386 11.3897H16.0324L17.2686 7.54613L18.4563 9.32544H22.2903C22.2186 9.42889 22.1398 9.52986 22.0538 9.62833C21.9677 9.72681 21.8792 9.8228 21.7882 9.91631L16.3943 15.3139Z" fill="#41006A"/>
</svg>
