<svg width="112" height="124" viewBox="0 0 112 124" fill="none" xmlns="http://www.w3.org/2000/svg">
<path d="M109.029 86.9723L111.164 79.542C112.118 76.2214 113.435 72.9541 115.031 69.9053C117.881 64.4621 119.719 58.5614 120.457 52.4885M108.681 52.5577C108.748 52.1504 108.804 51.7578 108.852 51.3808C109.233 48.2542 108.343 45.2967 107.256 42.5158L104.453 35.3343C103.982 34.0612 103.932 32.669 104.308 31.3576C104.685 30.0463 105.47 28.8833 106.55 28.0355C108.523 26.5441 111.046 26.6117 112.626 28.3327C114.467 30.338 116.77 33.0833 117.981 35.4443M108.681 52.5577C108.661 52.682 108.639 52.8061 108.617 52.9302M108.681 52.5577C108.689 51.9922 108.555 51.4349 108.291 50.9362C108.003 50.3227 107.593 49.7738 107.086 49.322C106.578 48.8702 105.984 48.5246 105.338 48.3057C104.691 48.0868 104.006 47.999 103.323 48.0474C102.639 48.0958 101.971 48.2795 101.357 48.5877C100.756 48.885 100.204 49.2718 99.7192 49.7345C91.5603 57.4175 91.6484 72.8812 95.3287 83.2152M108.681 52.5577C108.673 52.6836 108.652 52.8085 108.617 52.9302M108.617 52.9302C108.248 54.9679 107.678 56.9667 106.916 58.8978" stroke="white" stroke-opacity="0.5" stroke-width="2.75791" stroke-linecap="round"/>
<path d="M68.714 105.74L61.6535 102.59C58.4982 101.183 55.1503 100.087 51.7896 99.3459C45.7898 98.0224 40.0911 95.6303 34.969 92.2853M42.6028 83.3188C42.248 83.108 41.9117 82.8979 41.5924 82.6917C38.9543 80.9708 37.2643 78.3857 35.8361 75.7636L32.1454 68.9952C31.4742 67.8154 30.4414 66.8804 29.1954 66.3246C27.9493 65.7688 26.5541 65.6206 25.2099 65.9014C22.7988 66.4507 21.2264 68.4248 21.5258 70.7422C21.8749 73.4421 22.4935 76.9714 23.5204 79.4183M42.6028 83.3188C42.7112 83.3831 42.82 83.4467 42.9293 83.5095M42.6028 83.3188C42.1649 82.961 41.8247 82.4998 41.613 81.9767C41.3292 81.3609 41.1732 80.6938 41.154 80.0148C41.1349 79.3357 41.2531 78.6585 41.5017 78.023C41.7503 77.3875 42.1242 76.8066 42.6013 76.3146C43.0785 75.8227 43.6492 75.4296 44.2799 75.1586C44.8944 74.8899 45.5461 74.7162 46.212 74.6434C57.3437 73.3462 69.12 83.3687 74.6585 92.8376M42.6028 83.3188C42.7044 83.3937 42.8139 83.4576 42.9293 83.5095M42.9293 83.5095C44.7264 84.5386 46.6226 85.3895 48.5906 86.0499" stroke="white" stroke-opacity="0.5" stroke-width="2.75791" stroke-linecap="round"/>
<g clip-path="url(#clip0_9_229)">
<path d="M70.6316 31.4167C73.9143 29.8885 77.2792 29.8529 80.7261 31.3101C84.174 32.7647 86.7262 35.2715 88.3829 38.8302C88.869 39.8743 89.2388 40.9683 89.4925 42.1124C89.7479 43.2557 89.8518 44.4278 89.8041 45.6286L76.8213 51.6725L69.0809 46.7868L66.7343 47.8792L68.5144 62.7033L61.763 58.6825L47.4927 65.3257C46.5431 64.5891 45.7166 63.7626 45.0131 62.8462C44.3104 61.9315 43.7192 60.9588 43.2394 59.9282C41.5617 56.3242 41.2652 52.7399 42.3499 49.1752C43.4346 45.6105 45.618 43.0632 48.8999 41.5333C50.6182 40.7334 52.432 40.3135 54.3413 40.2736C56.2514 40.2353 58.1406 40.5875 60.009 41.33L62.5299 42.3306L63.3361 39.8972C63.9777 37.9475 64.9328 36.2428 66.2014 34.7829C67.47 33.3231 68.9468 32.201 70.6316 31.4167ZM79.1335 78.1611L52.6703 68.4058C52.2093 68.2377 51.7569 68.0554 51.3133 67.8588C50.8696 67.6623 50.4431 67.4415 50.0338 67.1963L61.5861 61.8185L69.4368 66.6131L71.7708 65.5266L69.9102 50.6605L76.6921 54.7862L89.5896 48.7821C89.5107 49.2423 89.4036 49.7054 89.2684 50.1714C89.1332 50.6375 88.9857 51.099 88.8259 51.5561L79.1335 78.1611Z" fill="white" fill-opacity="0.5"/>
</g>
<defs>
<clipPath id="clip0_9_229">
<rect width="66.4403" height="66.4403" fill="white" transform="translate(25.0972 40.6349) rotate(-24.9632)"/>
</clipPath>
</defs>
</svg>
