<svg width="24" height="24" viewBox="0 0 24 24" fill="none" xmlns="http://www.w3.org/2000/svg">
<circle cx="12" cy="12" r="12" fill="#EFF1FF"/>
<path d="M12 5.33325C8.31808 5.33325 5.33331 8.31802 5.33331 11.9999C5.33331 15.6818 8.31808 18.6666 12 18.6666C15.6819 18.6666 18.6666 15.6818 18.6666 11.9999C18.6666 8.31802 15.6819 5.33325 12 5.33325Z" fill="#42276C"/>
<path d="M15.3166 8.99984L14.068 15.3752C14.068 15.3752 14.0143 15.6665 13.653 15.6665C13.461 15.6665 13.362 15.5752 13.362 15.5752L10.6573 13.3308L9.33398 12.6638L7.63565 12.2122C7.63565 12.2122 7.33331 12.1248 7.33331 11.8748C7.33331 11.6665 7.64431 11.5672 7.64431 11.5672L14.7496 8.7445C14.7493 8.74417 14.9666 8.66617 15.125 8.6665C15.2223 8.6665 15.3333 8.70817 15.3333 8.83317C15.3333 8.9165 15.3166 8.99984 15.3166 8.99984Z" fill="white"/>
<path d="M11.6666 14.1683L10.5246 15.293C10.5246 15.293 10.475 15.3313 10.4086 15.333C10.3856 15.3337 10.361 15.33 10.3356 15.3187L10.657 13.3303L11.6666 14.1683Z" fill="#B0BEC5"/>
<path d="M13.9656 10.0653C13.9093 9.99196 13.8053 9.97863 13.732 10.0343L9.33331 12.6666C9.33331 12.6666 10.0353 14.6306 10.1423 14.9706C10.2496 15.311 10.3356 15.319 10.3356 15.319L10.657 13.3306L13.9343 10.2986C14.0076 10.243 14.0213 10.1386 13.9656 10.0653Z" fill="#CFD8DC"/>
</svg>
