<svg width="24" height="24" viewBox="0 0 24 24" fill="none" xmlns="http://www.w3.org/2000/svg">
<circle cx="12" cy="12" r="12" fill="#EFF1FF"/>
<path d="M16.6667 6H7.33333C6.59667 6 6 6.59667 6 7.33333V16.6667C6 17.4033 6.59667 18 7.33333 18H16.6667C17.4033 18 18 17.4033 18 16.6667V7.33333C18 6.59667 17.4033 6 16.6667 6ZM10 15.3333H8.318V10.6667H10V15.3333ZM9.12933 9.81133C8.61533 9.81133 8.272 9.46867 8.272 9.01133C8.272 8.554 8.61467 8.21133 9.186 8.21133C9.7 8.21133 10.0433 8.554 10.0433 9.01133C10.0433 9.46867 9.70067 9.81133 9.12933 9.81133ZM16 15.3333H14.372V12.7827C14.372 12.0773 13.938 11.9147 13.7753 11.9147C13.6127 11.9147 13.07 12.0233 13.07 12.7827C13.07 12.8913 13.07 15.3333 13.07 15.3333H11.388V10.6667H13.07V11.318C13.2867 10.938 13.7207 10.6667 14.5347 10.6667C15.3487 10.6667 16 11.318 16 12.7827V15.3333Z" fill="#42276C"/>
</svg>
