<svg width="24" height="24" viewBox="0 0 24 24" fill="none" xmlns="http://www.w3.org/2000/svg">
<circle cx="12" cy="12" r="12" fill="#EFF1FF"/>
<path d="M17.89 8.49333C17.7567 8.58 17.5667 8.66 17.4867 8.75C17.4567 8.78 17.44 8.81333 17.4467 8.84666V9.19L17.3467 9.52666L17.2467 9.86L17.1367 10.2267L16.91 10.9767L16.69 11.7167L16.5233 12.2733C16.5233 12.36 16.52 12.4467 16.5133 12.53C16.49 12.85 16.4233 13.1567 16.3167 13.4433C16.2533 13.62 16.1767 13.79 16.0833 13.95C16.05 14.0133 16.01 14.0767 15.97 14.1367C15.8367 14.3467 15.6767 14.54 15.5 14.71C15.3633 14.8467 15.2133 14.9733 15.05 15.08C15.05 15.08 15.05 15.08 15.0467 15.08C15.02 15.1033 14.99 15.1233 14.9567 15.14C14.8533 15.21 14.7433 15.27 14.63 15.3233C14.5533 15.3633 14.4767 15.3967 14.3967 15.4267C14.38 15.4367 14.36 15.4433 14.3433 15.45C14.1533 15.54 13.9333 15.6 13.7133 15.63C13.7 15.6333 13.69 15.6333 13.6767 15.6367C13.5433 15.66 13.4133 15.68 13.28 15.69C13.22 15.6967 13.1567 15.7 13.0967 15.7L12.86 15.6867L11.72 15.6267C11.72 15.6233 11.7167 15.6267 11.7167 15.6267L11.1433 15.5967C11.1 15.5967 11.0533 15.5967 11.01 15.5933C10.83 15.5867 10.6567 15.5667 10.4833 15.53C10.48 15.53 10.48 15.53 10.48 15.53C10.1633 15.47 9.86001 15.3633 9.57667 15.22C9.42001 15.14 9.26667 15.05 9.12334 14.9467C9.06334 14.9033 9.00667 14.8567 8.95001 14.8067C8.79001 14.6733 8.64667 14.53 8.51334 14.3833C8.49334 14.3633 8.47667 14.3433 8.46001 14.3233C8.44001 14.3033 8.42001 14.28 8.40334 14.26C8.27667 14.1 8.17001 13.9367 8.08334 13.7633C8.00334 13.61 7.94001 13.4467 7.89001 13.2667C7.87001 13.2033 7.85334 13.1433 7.84001 13.0767C7.83668 13.0733 7.83334 13.0667 7.83334 13.06C7.80001 12.9233 7.77001 12.78 7.75334 12.6367C7.73334 12.5267 7.72334 12.4167 7.72334 12.3033C7.71667 12.26 7.71667 12.2133 7.71667 12.17L8.35334 11.1867L8.97667 10.2267L9.26001 9.79L9.51667 9.39666L9.60334 9.26V8.91666C9.61001 8.84 9.61334 8.76 9.61001 8.68667C9.60667 8.45333 9.56001 8.22667 9.48334 8.01C9.41001 7.78 9.30667 7.56333 9.20001 7.36333C9.07334 7.13333 8.94001 6.92667 8.83001 6.74C8.66667 6.46667 8.55334 6.24333 8.58334 6.08667C8.82334 6.03 9.07667 6 9.33334 6H14.6667C16.06 6 17.26 6.86667 17.7567 8.08667C17.81 8.21667 17.8567 8.35333 17.89 8.49333Z" fill="#42276C"/>
<path d="M18 9.33333V9.42333L17.54 9.69L17.2467 9.86L16.9233 10.0467L16.2767 10.4233L15.6433 10.79L14.9967 11.1633L14.74 11.3133C14.74 11.4733 14.7 11.62 14.6267 11.7533C14.5233 11.9467 14.35 12.1067 14.13 12.2433C13.9067 12.38 13.6333 12.49 13.3267 12.57C13.3267 12.57 13.3267 12.5667 13.3233 12.57C12.1367 12.8767 10.5167 12.7367 9.73002 12.15C9.51002 11.9867 9.35668 11.7867 9.29002 11.5567C9.27002 11.48 9.26002 11.3967 9.26002 11.3133V8.91667C9.26335 8.86667 9.23002 8.81667 9.17002 8.76667C8.99002 8.62333 8.56668 8.48667 8.09335 8.35C7.72335 8.24667 7.32668 8.14333 6.99335 8.04333C6.73002 7.96333 6.50669 7.88333 6.37335 7.80667C6.43335 7.69 6.50335 7.57333 6.57669 7.46333C7.04335 6.78 7.75668 6.27667 8.58335 6.08667C8.82335 6.03 9.07668 6 9.33335 6H12.9333C14.7233 6.31333 16.3733 7.04333 17.7567 8.08667C17.81 8.21667 17.8567 8.35333 17.89 8.49333C17.95 8.71333 17.9867 8.94 17.9967 9.17667C18 9.22667 18 9.28 18 9.33333Z" fill="#42276C"/>
<path d="M18 9.33335V10.8034L17.9266 11.03L17.6766 11.8067L17.4166 12.6067L17.28 13.0333L17.1533 13.43L17.03 13.8067L16.91 14.18L16.8466 14.3767L16.7633 14.6367C16.7633 14.89 16.7566 15.1133 16.74 15.3033C16.7366 15.3233 16.7333 15.3433 16.7333 15.3633C16.7133 15.54 16.6866 15.69 16.6433 15.8167C16.64 15.8367 16.6333 15.8567 16.6266 15.8733C16.54 16.1133 16.41 16.2667 16.2166 16.3667C16.17 16.3933 16.1166 16.4133 16.06 16.4333C15.8833 16.4933 15.66 16.5233 15.3866 16.54C15.1866 16.5533 14.9566 16.5567 14.6966 16.5567H14.4666L14.07 16.54L14 16.5367L13.2766 16.5067L12.5433 16.4767L10.1266 16.3767L9.49997 16.35H9.4133C9.15331 16.3467 8.92997 16.33 8.73664 16.3033C8.45664 16.26 8.23997 16.1867 8.07664 16.0767C7.84331 15.9267 7.70664 15.7067 7.62664 15.4C7.60664 15.3267 7.58997 15.25 7.57997 15.1667C7.54664 14.9733 7.52997 14.75 7.51997 14.5C7.51997 14.45 7.51997 14.4 7.51664 14.3467C7.51331 14.3433 7.51664 14.3433 7.51664 14.3433V14.15C7.51331 14.0533 7.51331 13.9533 7.51331 13.85L7.52997 13.3133L7.53997 12.93L7.55331 12.4833V12.42L7.57664 11.6L7.59997 10.78L7.62331 10.01L7.64331 9.25335L7.64997 9.05335C7.64997 8.95002 7.29997 8.89002 6.90997 8.84002C6.59997 8.80002 6.25997 8.76335 6.05664 8.71668C6.07331 8.64002 6.08997 8.56335 6.10997 8.49002C6.16997 8.25002 6.25997 8.02335 6.37331 7.80669C6.43331 7.69002 6.50331 7.57335 6.57664 7.46335C7.29664 7.14669 8.04664 6.90002 8.82997 6.74002C9.51664 6.59669 10.2333 6.52002 10.9733 6.52002C13.4266 6.52002 15.6933 7.35002 17.4866 8.75002C17.66 8.88335 17.83 9.02668 17.9966 9.17668C18 9.22668 18 9.28002 18 9.33335Z" fill="#42276C"/>
<path d="M18 10.1234V11.6367L17.8167 11.99L17.4667 12.6734L17.28 13.0334L17.11 13.3634L17.0367 13.5067C17.0367 13.61 17.0367 13.71 17.03 13.8067C17.03 13.95 17.0233 14.0867 17.0133 14.2134C17 14.3634 16.98 14.5 16.96 14.6267C16.91 14.89 16.84 15.1167 16.74 15.3034C16.7267 15.3267 16.7133 15.35 16.7 15.37C16.6633 15.43 16.62 15.4867 16.5733 15.54C16.5133 15.6134 16.4467 15.6767 16.37 15.73C16.2567 15.8167 16.1233 15.8867 15.97 15.94C15.78 16.01 15.56 16.0567 15.3 16.0834C15.13 16.1 14.9433 16.11 14.74 16.11L14.6 16.1167L13.9067 16.1567H13.9033L13.1667 16.2L12.4167 16.2434L11.3833 16.3034L10.1267 16.3767L9.94333 16.3867C9.77333 16.3867 9.61333 16.3767 9.46 16.3567C9.44333 16.3534 9.43 16.35 9.41333 16.35C9.18666 16.3134 8.98 16.2534 8.79333 16.17C8.56666 16.07 8.37 15.9367 8.20333 15.7767C8.05667 15.6334 7.93 15.47 7.82667 15.2867C7.80333 15.2434 7.78 15.2034 7.76 15.1567C7.66 14.96 7.58 14.74 7.52 14.5C7.51 14.46 7.5 14.4167 7.49333 14.3734C7.47333 14.2967 7.45667 14.2167 7.44667 14.1334C7.41 13.92 7.39 13.6934 7.38 13.4567V13.4534C7.37667 13.3567 7.37333 13.2634 7.37333 13.1634L7.21 12.7734L7.18667 12.7134L7.16667 12.6634L6.91667 12.0667L6.87667 11.97L6.63667 11.3934L6.37 10.75C6.37 10.75 6.37 10.75 6.36667 10.75L6.09667 10.1L6 9.86337V9.33337C6 9.12337 6.02 8.9167 6.05667 8.7167C6.07333 8.64003 6.09 8.56337 6.11 8.49004C6.39333 8.3267 6.69 8.1767 6.99333 8.04337C7.68667 7.73337 8.43 7.50337 9.2 7.36337C9.77333 7.26004 10.37 7.20337 10.9733 7.20337C13.41 7.20337 15.62 8.0867 17.3467 9.5267C17.4133 9.58003 17.4767 9.63337 17.54 9.69003C17.6967 9.8267 17.85 9.97003 18 10.1234Z" fill="#42276C"/>
<path d="M18 11.1166V12.8299L17.81 13.2266L17.45 13.9766L17.4467 13.9866C17.4467 14.1299 17.44 14.2599 17.43 14.3766C17.3967 14.7599 17.3033 15.0032 17.15 15.1532C17.04 15.2666 16.9033 15.3299 16.7333 15.3632C16.7233 15.3666 16.71 15.3666 16.7 15.3699C16.6467 15.3799 16.59 15.3866 16.53 15.3866C16.3233 15.4066 16.08 15.3932 15.8 15.3732C15.77 15.3732 15.7367 15.3699 15.7033 15.3666C15.5 15.3532 15.2833 15.3399 15.0433 15.3299C14.9133 15.3266 14.7767 15.3232 14.6367 15.3232H14.63L14.2933 15.3499H14.29L13.5333 15.4032L12.67 15.4699L12.5433 15.4799L11.5333 15.5532L11.01 15.5932L10.4933 15.6299C10.4033 15.6299 10.3167 15.6299 10.23 15.6266C10.23 15.6266 10.2267 15.6232 10.2267 15.6266C9.85 15.6199 9.51333 15.5966 9.21333 15.5399C8.93666 15.4932 8.69333 15.4199 8.48667 15.3099C8.27333 15.2066 8.09667 15.0599 7.95333 14.8732C7.81667 14.6899 7.71667 14.4599 7.65333 14.1832C7.65333 14.1799 7.65333 14.1799 7.65333 14.1799C7.60667 13.9566 7.58 13.6966 7.58 13.4032L7.53 13.3132L7.23333 12.7832L7.19 12.7099L7.16667 12.6632L6.85667 12.1132L6.70333 11.8366L6.51 11.4932L6.17667 10.8966L6 10.5832V9.35656C6.29333 9.16323 6.59667 8.99323 6.91 8.83989C7.29 8.64656 7.68333 8.48323 8.09333 8.34989C8.54 8.20323 9.00666 8.08656 9.48333 8.00989C9.96666 7.92989 10.4633 7.88989 10.9733 7.88989C13.24 7.88989 15.32 8.69989 16.9233 10.0466C16.9967 10.1032 17.0667 10.1666 17.1367 10.2266C17.4167 10.4766 17.6833 10.7466 17.9267 11.0299C17.9533 11.0599 17.98 11.0866 18 11.1166Z" fill="#42276C"/>
<path d="M18 12.2366V14.6466C17.92 14.5999 17.81 14.5432 17.6733 14.4832C17.6 14.4466 17.5167 14.4099 17.43 14.3766C17.3033 14.3199 17.1667 14.2666 17.0133 14.2132C16.98 14.1999 16.9467 14.1899 16.91 14.1799C16.85 14.1566 16.7867 14.1366 16.7233 14.1166C16.5267 14.0566 16.31 13.9999 16.0833 13.9499C15.9967 13.9332 15.9067 13.9166 15.8167 13.9032C15.5267 13.8532 15.2167 13.8232 14.8933 13.8199C14.8667 13.8166 14.8367 13.8166 14.81 13.8166L13.9533 13.8232L12.7867 13.8299H12.7833L10.2867 13.8499C9.49333 13.8499 9.00666 14.0399 8.71333 14.1166C8.71333 14.1166 8.71 14.1166 8.71 14.1199C8.4 14.1999 8.30333 14.1499 8.27666 13.6066C8.27 13.4566 8.26667 13.2632 8.26667 13.0266L8.08 12.8832L7.75333 12.6366L7.55333 12.4832L7.51333 12.4532L6.96 12.0332L6.87667 11.9699L6.70333 11.8366L6.38333 11.5966L6 11.3032V10.1699C6.03333 10.1432 6.06333 10.1199 6.09667 10.0999C6.58 9.76657 7.09667 9.48324 7.64333 9.25324C8.13 9.04658 8.64333 8.88324 9.17 8.76658C9.31333 8.73658 9.46 8.70658 9.61 8.68658C10.0533 8.60991 10.51 8.57324 10.9733 8.57324C12.9767 8.57324 14.8167 9.26991 16.2767 10.4232C16.4967 10.5966 16.71 10.7799 16.91 10.9766C17.1833 11.2366 17.44 11.5132 17.6767 11.8066C17.7233 11.8666 17.77 11.9266 17.8167 11.9899C17.88 12.0699 17.94 12.1532 18 12.2366Z" fill="#42276C"/>
<path d="M18 13.5733V14.6667C18 14.8833 17.98 15.0967 17.94 15.3033C17.88 15.61 17.7767 15.9033 17.6367 16.1767C17.5633 16.1933 17.48 16.1933 17.3867 16.18C17.1767 16.1433 16.93 16.0333 16.6633 15.89C16.65 15.8867 16.6367 15.88 16.6267 15.8733C16.5433 15.83 16.4567 15.7833 16.37 15.73C16.1933 15.6333 16.0067 15.5267 15.82 15.4267C15.78 15.4067 15.74 15.3867 15.7033 15.3667C15.49 15.2567 15.27 15.1567 15.05 15.08C15.05 15.08 15.05 15.08 15.0467 15.08C15 15.0633 14.95 15.0467 14.9 15.0333C14.71 14.98 14.5167 14.9467 14.33 14.9467L13.9633 14.84L12.34 14.37C12.34 14.37 12.34 14.37 12.3367 14.37L11.34 14.08H11.3367L10.9033 13.9533C9.65 13.9533 8.88 14.4867 8.50666 14.2833C8.36 14.2067 8.27333 14.0133 8.24333 13.6333C8.23333 13.5267 8.23 13.4067 8.23 13.2667L7.84 13.0767L7.82333 13.07H7.82L7.54 12.93L7.23333 12.7833L7.21 12.7733L7.15333 12.7433L6.5 12.4267L6 12.1833V11.04C6.05667 10.99 6.11667 10.9433 6.17667 10.8967C6.24 10.8467 6.30333 10.8 6.36667 10.75C6.37 10.75 6.37 10.75 6.37 10.75C6.76333 10.4667 7.18 10.2167 7.62333 10.01C8.14 9.76334 8.69 9.57334 9.26 9.45001C9.34333 9.43001 9.43 9.41001 9.51666 9.39668C9.99 9.30668 10.4767 9.26001 10.9733 9.26001C12.73 9.26001 14.3433 9.83001 15.6433 10.79C16.02 11.07 16.37 11.38 16.69 11.7167C16.9533 11.9933 17.1967 12.2933 17.4167 12.6067C17.4333 12.63 17.45 12.6533 17.4667 12.6733C17.59 12.8533 17.7033 13.0367 17.81 13.2267C17.88 13.34 17.94 13.4567 18 13.5733Z" fill="#42276C"/>
<path d="M17.94 15.3034C17.88 15.61 17.7767 15.9034 17.6367 16.1767C17.5733 16.3 17.5033 16.4167 17.4267 16.53C17.38 16.6 17.33 16.6667 17.28 16.73C17.16 16.6834 16.9833 16.6167 16.7667 16.5434C16.7667 16.5434 16.7667 16.5434 16.7667 16.54C16.6033 16.4834 16.4167 16.4234 16.2167 16.3667C16.16 16.35 16.1033 16.3334 16.0433 16.3167C15.8067 16.2534 15.56 16.1967 15.32 16.1634C15.12 16.13 14.9233 16.11 14.74 16.11L14.5867 16.0667H14.5833L13.7767 15.8334L13.28 15.69L12.7267 15.53H12.7233L12.5433 15.48L10.3667 14.8534L9.74 14.6734L9.27333 14.5634L8.51333 14.3834L8.42 14.36C8.42 14.36 8.42 14.36 8.41667 14.36L7.65333 14.1834C7.65333 14.18 7.65333 14.18 7.65333 14.18L7.51667 14.15L7.44667 14.1334L6.89 14.0034L6.82667 13.9867L6.35333 13.5967L6 13.3V11.94C6.12333 11.82 6.25 11.7067 6.38333 11.5967C6.42333 11.56 6.46667 11.5267 6.51 11.4934C6.55 11.46 6.59333 11.4267 6.63667 11.3934C6.94 11.1634 7.26 10.9567 7.6 10.78C8.03333 10.5467 8.49333 10.36 8.97667 10.2267C9.07 10.1967 9.16333 10.17 9.26 10.15C9.80666 10.0134 10.38 9.94336 10.9733 9.94336C12.4633 9.94336 13.85 10.3934 14.9967 11.1634C15.5667 11.5467 16.08 12.0067 16.5133 12.53C16.7333 12.7934 16.9333 13.07 17.11 13.3634C17.1267 13.3867 17.14 13.4067 17.1533 13.43C17.26 13.6067 17.36 13.79 17.45 13.9767C17.5333 14.1434 17.6067 14.31 17.6733 14.4834C17.78 14.75 17.8667 15.0234 17.94 15.3034Z" fill="#42276C"/>
<path d="M17.4267 16.5299C17.38 16.5999 17.33 16.6665 17.28 16.7299C17.1333 16.9132 16.9733 17.0799 16.7933 17.2265C16.6367 17.3565 16.47 17.4732 16.2933 17.5732C16.2267 17.5565 16.16 17.5365 16.09 17.5099C15.87 17.4332 15.64 17.3065 15.4267 17.1732C15.1067 16.9699 14.83 16.7499 14.7067 16.6499C14.66 16.6099 14.6367 16.5899 14.6367 16.5899L14.07 16.5399L14 16.5332L13.2667 16.4699L12.5067 16.4032L11.3833 16.3032L9.60333 16.1465L9.59666 16.1432L8.97 15.8399L8.33667 15.5332L7.82667 15.2865L7.71667 15.2332L7.58 15.1665L7.10667 14.9365L6.47667 14.6332L6.28 14.5365L6 14.4499V12.9599C6.15667 12.7732 6.32333 12.5965 6.5 12.4265C6.61333 12.3199 6.73333 12.2132 6.85667 12.1132C6.87667 12.0965 6.89667 12.0799 6.91667 12.0665C6.93 12.0499 6.94667 12.0399 6.96 12.0332C7.15667 11.8732 7.36333 11.7299 7.57667 11.5999C7.82333 11.4432 8.08333 11.3032 8.35333 11.1865C8.64333 11.0565 8.94666 10.9465 9.26 10.8632C9.80333 10.7099 10.38 10.6299 10.9733 10.6299C12.3333 10.6299 13.59 11.0432 14.6267 11.7532C15.29 12.2065 15.8633 12.7799 16.3167 13.4432C16.4667 13.6565 16.6 13.8832 16.7233 14.1165C16.7667 14.2032 16.81 14.2899 16.8467 14.3765C16.8867 14.4599 16.9233 14.5432 16.96 14.6265C17.03 14.7999 17.0933 14.9732 17.15 15.1532C17.2567 15.4865 17.3367 15.8265 17.3867 16.1799C17.4033 16.2965 17.4167 16.4132 17.4267 16.5299Z" fill="#42276C"/>
<path d="M16.7967 17.1399C16.7967 17.1666 16.7967 17.1966 16.7933 17.2266C16.6367 17.3566 16.47 17.4732 16.2933 17.5732C16.22 17.6132 16.1467 17.6532 16.07 17.6866C15.9933 17.7232 15.9167 17.7566 15.8367 17.7866C15.7233 17.7266 15.57 17.6532 15.4067 17.5832C15.1767 17.4799 14.9267 17.3866 14.7333 17.3566C14.6867 17.3466 14.6433 17.3432 14.6033 17.3432L14.0567 17.2732H14.05L13.37 17.1832L12.6833 17.0932L12.3633 17.0532L9.84333 16.7266C9.68 16.7266 9.50666 16.7166 9.32666 16.6932C9.10666 16.6732 8.87666 16.6399 8.64666 16.5932C8.42 16.5532 8.19 16.4999 7.97 16.4432C7.74 16.3899 7.51333 16.3266 7.30333 16.2666C7.06 16.1932 6.83333 16.1232 6.64333 16.0599C6.48667 16.0099 6.35333 15.9632 6.25 15.9266C6.19 15.7832 6.14 15.6332 6.10333 15.4799C6.03333 15.2199 6 14.9466 6 14.6666V14.1099C6.10667 13.9332 6.22333 13.7599 6.35333 13.5966C6.59 13.2832 6.86 12.9966 7.15333 12.7432C7.16333 12.7299 7.17667 12.7199 7.18667 12.7132L7.19 12.7099C7.29333 12.6166 7.4 12.5332 7.51333 12.4532C7.52667 12.4399 7.54 12.4299 7.55333 12.4199C7.60667 12.3799 7.66333 12.3399 7.72333 12.3032C8.2 11.9799 8.72666 11.7266 9.29 11.5566C9.82333 11.3966 10.3867 11.3132 10.9733 11.3132C12.1367 11.3132 13.2233 11.6566 14.13 12.2432C14.8 12.6732 15.3767 13.2399 15.8167 13.9032C15.87 13.9799 15.92 14.0566 15.97 14.1366C16.2 14.5266 16.39 14.9466 16.53 15.3866C16.5467 15.4366 16.56 15.4866 16.5733 15.5399C16.6 15.6299 16.6233 15.7232 16.6433 15.8166C16.65 15.8399 16.6567 15.8632 16.6633 15.8899C16.71 16.0999 16.7433 16.3199 16.7667 16.5399C16.7667 16.5432 16.7667 16.5432 16.7667 16.5432C16.7867 16.7399 16.7967 16.9399 16.7967 17.1399Z" fill="#42276C"/>
<path d="M16.11 17.14C16.11 17.2567 16.1033 17.3833 16.09 17.51C16.0833 17.57 16.0767 17.63 16.07 17.6867C15.9933 17.7233 15.9167 17.7567 15.8367 17.7867C15.6867 17.8433 15.5333 17.89 15.3767 17.9233C15.27 17.9467 15.16 17.9667 15.05 17.9767H15.0467C14.9433 17.9133 14.8233 17.8367 14.7 17.75C14.4767 17.5933 14.2433 17.4167 14.0567 17.2733C14.0533 17.27 14.0533 17.27 14.05 17.2667C13.8533 17.1167 13.7133 17.0033 13.7133 17.0033L13.36 17.0167L12.68 17.04L12.3633 17.0533L11.09 17.1L10.0133 17.14C9.94333 17.1433 9.86 17.1433 9.75666 17.14H9.75333C9.61333 17.1367 9.44666 17.1267 9.26333 17.11C9.05 17.0933 8.81666 17.0733 8.58 17.05C8.35 17.0233 8.11666 16.9967 7.89333 16.97C7.64667 16.9433 7.41333 16.9133 7.21333 16.8867C7.05667 16.8667 6.92 16.85 6.81 16.8367C6.71667 16.73 6.63333 16.62 6.55333 16.5C6.43333 16.32 6.33 16.13 6.25 15.9267C6.19 15.7833 6.14 15.6333 6.10333 15.48C6.2 15.1833 6.32667 14.9033 6.47667 14.6333C6.59667 14.4133 6.73667 14.2033 6.89 14.0033C7.04 13.8067 7.20333 13.6233 7.38 13.4567V13.4533C7.43 13.4033 7.48 13.3567 7.53 13.3133C7.62333 13.2267 7.72 13.1467 7.82 13.07H7.82333C7.82666 13.0633 7.83 13.0633 7.83333 13.06C7.91333 12.9967 7.99666 12.94 8.08 12.8833C8.57333 12.5467 9.13 12.2967 9.73 12.15C10.1267 12.0533 10.5433 12 10.9733 12C11.82 12 12.62 12.2033 13.3233 12.57H13.3267C13.93 12.88 14.4633 13.3067 14.8933 13.82C15.13 14.0933 15.3333 14.3933 15.5 14.71C15.6167 14.9233 15.7167 15.1467 15.8 15.3733C15.8067 15.3933 15.8133 15.41 15.82 15.4267C15.8767 15.5933 15.9267 15.7667 15.97 15.94C16 16.0633 16.0233 16.19 16.0433 16.3167C16.05 16.3567 16.0567 16.3933 16.06 16.4333C16.0933 16.6633 16.11 16.9 16.11 17.14Z" fill="#42276C"/>
<path d="M15.4267 17.1401V17.1734C15.4267 17.2868 15.4167 17.4301 15.4067 17.5834C15.3967 17.6968 15.3867 17.8134 15.3767 17.9234C15.27 17.9468 15.16 17.9668 15.05 17.9768H15.0467C14.92 17.9934 14.7967 18.0001 14.6667 18.0001H14.0833L13.9567 17.9634L13.3 17.7634L12.6333 17.5634L11.09 17.1001L10.4233 16.9001C10.4233 16.9001 10.1467 17.0101 9.75668 17.1401H9.75334C9.60334 17.1901 9.44001 17.2434 9.26668 17.2968C9.05001 17.3601 8.82001 17.4234 8.59334 17.4734C8.36001 17.5268 8.13001 17.5668 7.92334 17.5834C7.86001 17.5901 7.79668 17.5934 7.74001 17.5934C7.55334 17.4901 7.37334 17.3668 7.21001 17.2301C7.06668 17.1101 6.93334 16.9801 6.81001 16.8368C6.71668 16.7301 6.63334 16.6201 6.55334 16.5001C6.57668 16.3501 6.60334 16.2034 6.64334 16.0601C6.74334 15.6634 6.90001 15.2834 7.10668 14.9368C7.22001 14.7401 7.34668 14.5501 7.49334 14.3734C7.49668 14.3634 7.50668 14.3534 7.51668 14.3468C7.51334 14.3434 7.51668 14.3434 7.51668 14.3434C7.56001 14.2868 7.60668 14.2334 7.65334 14.1834C7.65334 14.1801 7.65334 14.1801 7.65334 14.1801C7.79001 14.0334 7.93001 13.8934 8.08334 13.7634C8.13668 13.7201 8.18668 13.6768 8.24334 13.6334C8.25334 13.6234 8.26334 13.6168 8.27668 13.6068C9.02668 13.0334 9.96334 12.6868 10.9733 12.6868C12.12 12.6868 13.1633 13.1168 13.9533 13.8234C14.3333 14.1668 14.6567 14.5768 14.9 15.0334C14.92 15.0668 14.94 15.1034 14.9567 15.1401C14.9867 15.2001 15.0167 15.2634 15.0433 15.3301C15.1533 15.5701 15.24 15.8234 15.3 16.0834C15.3067 16.1101 15.3133 16.1368 15.32 16.1634C15.3467 16.2868 15.37 16.4134 15.3867 16.5401C15.4133 16.7368 15.4267 16.9368 15.4267 17.1401Z" fill="#42276C"/>
<path d="M14.74 17.1401C14.74 17.2068 14.7366 17.2801 14.7333 17.3568C14.7266 17.4801 14.7166 17.6134 14.7 17.7501C14.6933 17.8334 14.68 17.9168 14.6666 18.0001H12.84L12.4866 17.9434L11.1066 17.7234L10.91 17.6934L10.46 17.6201C10.2633 17.6201 9.83664 17.7068 9.38664 17.7901C9.14997 17.8334 8.90997 17.8801 8.69331 17.9101C8.66664 17.9134 8.63997 17.9168 8.61664 17.9201H8.61331C8.37997 17.8701 8.15331 17.7934 7.93997 17.6934C7.87331 17.6634 7.80664 17.6301 7.73997 17.5934C7.55331 17.4901 7.37331 17.3668 7.20997 17.2301C7.20664 17.1901 7.20331 17.1568 7.20331 17.1401C7.20331 17.0534 7.20664 16.9701 7.21331 16.8868C7.22664 16.6734 7.25664 16.4668 7.30331 16.2668C7.37664 15.9634 7.48331 15.6701 7.62664 15.4001C7.65331 15.3434 7.68331 15.2868 7.71664 15.2334C7.72997 15.2068 7.74664 15.1834 7.75997 15.1568C7.81997 15.0601 7.88664 14.9668 7.95331 14.8734C8.09331 14.6901 8.24997 14.5168 8.41664 14.3601C8.41997 14.3601 8.41997 14.3601 8.41997 14.3601C8.43331 14.3468 8.44664 14.3334 8.45997 14.3234C8.47664 14.3101 8.48997 14.2934 8.50664 14.2834C8.57331 14.2234 8.63997 14.1701 8.70997 14.1201C8.70997 14.1168 8.71331 14.1168 8.71331 14.1168C9.34331 13.6468 10.1233 13.3701 10.9733 13.3701C11.6333 13.3701 12.2466 13.5368 12.7833 13.8301H12.7866C13.2466 14.0834 13.6466 14.4268 13.9633 14.8401C14.0866 15.0001 14.1966 15.1701 14.29 15.3501H14.2933C14.31 15.3834 14.3266 15.4168 14.3433 15.4501C14.4433 15.6468 14.5233 15.8534 14.5833 16.0668H14.5866C14.59 16.0834 14.5966 16.1001 14.6 16.1168C14.64 16.2601 14.6733 16.4068 14.6966 16.5568C14.7 16.5868 14.7033 16.6201 14.7066 16.6501C14.73 16.8101 14.74 16.9734 14.74 17.1401Z" fill="#42276C"/>
<path d="M14.0567 17.1033C14.0567 17.1566 14.0567 17.2133 14.05 17.2666V17.27C14.05 17.2733 14.05 17.2733 14.05 17.2733C14.0433 17.5133 14.01 17.75 13.9567 17.9633C13.9567 17.9766 13.9533 17.9866 13.9467 18H12.39L11.1067 17.7233L10.9367 17.6866L10.91 17.6933L9.48668 17.9866L9.42335 18H9.33335C9.12001 18 8.91001 17.98 8.70668 17.94C8.67668 17.9333 8.64668 17.9266 8.61668 17.92H8.61335C8.38001 17.87 8.15335 17.7933 7.94001 17.6933C7.93335 17.6566 7.92668 17.62 7.92335 17.5833C7.90001 17.44 7.89001 17.29 7.89001 17.14C7.89001 17.0833 7.89001 17.0266 7.89335 16.97C7.90335 16.79 7.93001 16.6133 7.97001 16.4433C7.99668 16.3166 8.03335 16.1933 8.07668 16.0766C8.11335 15.9733 8.15668 15.8733 8.20335 15.7766C8.24335 15.6933 8.29001 15.6133 8.33668 15.5333C8.38335 15.4566 8.43335 15.3833 8.48668 15.31C8.62001 15.1266 8.77668 14.9566 8.95001 14.8066C9.05001 14.72 9.16001 14.6366 9.27335 14.5633C9.76001 14.2433 10.3433 14.0566 10.9733 14.0566C11.0967 14.0566 11.2167 14.0633 11.3333 14.08H11.34C11.6967 14.12 12.03 14.22 12.3367 14.37C12.34 14.37 12.34 14.37 12.34 14.37C12.8233 14.6066 13.2333 14.9633 13.5333 15.4033C13.5833 15.4766 13.6333 15.5566 13.6767 15.6366C13.7133 15.7 13.7467 15.7666 13.7767 15.8333C13.8233 15.9366 13.8667 16.0466 13.9033 16.1566H13.9067C13.9433 16.28 13.9767 16.4033 14 16.5333V16.5366C14.0367 16.72 14.0567 16.91 14.0567 17.1033Z" fill="#42276C"/>
<path d="M13.37 17.1734V17.1834C13.37 17.3801 13.3466 17.5734 13.3 17.7634C13.2833 17.8434 13.26 17.9234 13.23 18.0001H11.7366L10.9733 17.7901L10.21 18.0001H9.3333C9.11997 18.0001 8.90997 17.9801 8.70664 17.9401C8.69997 17.9301 8.69664 17.9201 8.6933 17.9101C8.64664 17.7668 8.60997 17.6234 8.5933 17.4734C8.57997 17.3768 8.5733 17.2768 8.5733 17.1734C8.5733 17.1334 8.5733 17.0901 8.57997 17.0501C8.5833 16.8934 8.60664 16.7401 8.64664 16.5934C8.66664 16.4934 8.69664 16.3968 8.73664 16.3034C8.74997 16.2568 8.76997 16.2134 8.7933 16.1701C8.8433 16.0568 8.9033 15.9468 8.96997 15.8401C9.0433 15.7334 9.1233 15.6334 9.2133 15.5401C9.31997 15.4201 9.43997 15.3101 9.57664 15.2201C9.80997 15.0501 10.0766 14.9234 10.3666 14.8534C10.56 14.8001 10.7633 14.7734 10.9733 14.7734C11.64 14.7734 12.2366 15.0401 12.67 15.4701C12.6866 15.4868 12.7066 15.5068 12.7233 15.5301H12.7266C12.7733 15.5801 12.8166 15.6301 12.86 15.6868C12.9833 15.8434 13.0866 16.0134 13.1666 16.2001C13.2066 16.2868 13.24 16.3768 13.2666 16.4701C13.27 16.4834 13.2733 16.4934 13.2766 16.5068C13.3233 16.6701 13.3533 16.8401 13.36 17.0168C13.3666 17.0668 13.37 17.1201 13.37 17.1734Z" fill="#42276C"/>
<path d="M12.6867 17.1733C12.6867 17.31 12.67 17.44 12.6333 17.5633C12.6 17.6966 12.55 17.8233 12.4867 17.9433C12.4767 17.9633 12.4533 18 12.4533 18H9.49334C9.49001 17.9966 9.48668 17.99 9.48668 17.9866C9.44668 17.9233 9.41334 17.86 9.38668 17.79C9.32001 17.6366 9.28001 17.47 9.26668 17.2966C9.26001 17.2566 9.26001 17.2133 9.26001 17.1733C9.26001 17.1533 9.26001 17.13 9.26334 17.11C9.26668 16.9633 9.28668 16.8233 9.32668 16.6933C9.36001 16.5733 9.40334 16.4633 9.46001 16.3566C9.46001 16.3566 9.46334 16.3533 9.46334 16.35C9.50334 16.28 9.54668 16.21 9.59668 16.1433C9.76001 15.9233 9.97668 15.7433 10.2267 15.6266C10.23 15.6266 10.23 15.6266 10.23 15.6266C10.31 15.5866 10.3933 15.5533 10.48 15.53C10.48 15.53 10.48 15.53 10.4833 15.53C10.6367 15.4833 10.8033 15.46 10.9733 15.46C11.17 15.46 11.36 15.49 11.5333 15.5533C11.5967 15.57 11.6567 15.5966 11.7167 15.6266C11.7167 15.6266 11.7167 15.6266 11.72 15.6266C12.0067 15.7633 12.25 15.9766 12.4167 16.2433C12.45 16.2933 12.48 16.3466 12.5067 16.4033C12.52 16.4266 12.5333 16.4533 12.5433 16.4766C12.62 16.65 12.6667 16.84 12.68 17.04C12.6833 17.0566 12.6833 17.0733 12.6833 17.0933C12.6867 17.12 12.6867 17.1466 12.6867 17.1733Z" fill="#42276C"/>
<path d="M14 7.66675H10C8.70002 7.66675 7.66669 8.70008 7.66669 10.0001V14.0001C7.66669 15.3001 8.70002 16.3334 10 16.3334H14C15.3 16.3334 16.3333 15.3001 16.3333 14.0001V10.0001C16.3333 8.70008 15.3 7.66675 14 7.66675Z" stroke="white" stroke-miterlimit="10" stroke-linecap="round" stroke-linejoin="round"/>
<path d="M14.3333 9.66667C14.5174 9.66667 14.6667 9.51743 14.6667 9.33333C14.6667 9.14924 14.5174 9 14.3333 9C14.1492 9 14 9.14924 14 9.33333C14 9.51743 14.1492 9.66667 14.3333 9.66667Z" fill="white"/>
<path d="M12 14C13.1046 14 14 13.1046 14 12C14 10.8954 13.1046 10 12 10C10.8954 10 10 10.8954 10 12C10 13.1046 10.8954 14 12 14Z" stroke="white" stroke-miterlimit="10" stroke-linecap="round" stroke-linejoin="round"/>
</svg>
