<svg width="60" height="55" viewBox="0 0 60 55" fill="none" xmlns="http://www.w3.org/2000/svg">
<path d="M18.1746 22.9381C16.0652 20.5603 14.0844 20.0498 12.232 21.4067C9.45362 23.4419 8.65566 30.5361 10.8915 36.7912C13.1275 43.0464 17.4751 51.5646 26.252 51.5646C35.0289 51.5646 37.105 42.9943 40.6856 37.8127C44.2663 32.6312 46.1606 27.6321 42.651 21.4067" stroke="black" stroke-opacity="0.46" stroke-width="4" stroke-linecap="round" stroke-linejoin="round"/>
<path d="M13.75 20.6674C11.6213 17.695 9.95467 15.3893 8.74995 13.7503C6.94287 11.2919 11.5638 8.1145 13.75 10.276C15.2074 11.7171 17.1435 13.8395 19.5582 16.6433" stroke="black" stroke-opacity="0.46" stroke-width="4" stroke-linecap="round"/>
<path d="M18.7795 29.3788C18.1739 22.4308 18.6666 17.9067 20.2578 15.8065C22.6444 12.6564 27.0789 11.462 31.2544 11.462C33.7405 11.462 36.0109 12.4326 38.0656 14.3739" stroke="black" stroke-opacity="0.46" stroke-width="4" stroke-linecap="round" stroke-linejoin="round"/>
<path d="M51.2504 14.4523C51.9822 16.7857 50.7867 18.9175 47.1055 19.4002C43.4241 19.8831 40.6641 21.5799 38.6735 23.0074C36.6829 24.4348 33.1229 28.7658 32.4201 30.9402C31.7172 33.1147 27.7002 31.1149 26.6214 30.2468C25.5425 29.3786 24.4819 27.4779 26.6214 25.49C28.7607 23.5021 28.2979 23.1054 28.2979 21.0894C28.2979 19.0735 40.0004 12.4052 46.5911 11.7954C48.0561 11.7171 50.5184 12.1189 51.2504 14.4523Z" stroke="black" stroke-opacity="0.46" stroke-width="4"/>
<path d="M28.7598 4.5836V10.6138" stroke="black" stroke-opacity="0.46" stroke-width="4" stroke-linecap="round"/>
<path d="M25.3832 12.2809C21.611 7.9354 18.5694 5.51007 16.2585 5.00491" stroke="black" stroke-opacity="0.46" stroke-width="4" stroke-linecap="round"/>
<path d="M21.2549 8.05411L22.493 3.39358" stroke="black" stroke-opacity="0.46" stroke-width="4" stroke-linecap="round"/>
<path d="M44.516 12.2805C44.1131 13.546 44.1131 14.7327 44.516 15.8402C44.9188 16.9479 45.7819 18.1345 47.1053 19.4001" stroke="black" stroke-opacity="0.46" stroke-width="4" stroke-linecap="round"/>
</svg>
