<svg width="60" height="55" viewBox="0 0 60 55" fill="none" xmlns="http://www.w3.org/2000/svg">
<path d="M53.325 29.5854C53.55 33.1375 51.775 36.5521 48.6 38.6375L50.525 42.0521C51.1 43.0833 51.175 44.2979 50.675 45.375C50.2 46.4521 49.225 47.3 48.025 47.6667L46.05 48.2396C45.2276 48.4935 44.3398 48.5088 43.5076 48.2832C42.6755 48.0576 41.9394 47.6023 41.4 46.9792L36.1 41.25C33.875 40.9062 31.775 40.0354 30 38.7292C28.75 39.0729 27.5 39.2562 26.25 39.2562C24.05 39.2562 21.85 38.6375 20 37.4458C18.675 37.8125 17.325 37.9729 15.95 37.95C13.975 37.9729 12.025 37.6062 10.2 36.9187C8.44334 36.2003 6.94233 35.0437 5.86819 33.5809C4.79405 32.1182 4.19002 30.4081 4.12499 28.6458C3.92499 26.9958 4.22499 25.3229 4.99999 23.8104C4.27499 22.0917 4.19999 20.2125 4.82499 18.4708C5.74999 16.2937 7.49999 14.4833 9.67499 13.3375C11.125 9.46458 15.2 6.875 19.675 7.15C23.675 3.7125 29.8 3.34583 34.25 6.30208C35.3 6.05 36.4 5.9125 37.5 5.9125C40.9 5.84375 44.125 7.21875 46.25 9.67083C51.35 10.8854 55 15.0562 55.2 19.9146C55.325 22.4583 54.575 24.9562 53.05 27.0875C53.225 27.9125 53.325 28.7375 53.325 29.5854ZM40.825 26.3542C42.25 26.5146 43.375 27.5 43.375 28.8062C43.375 29.414 43.1116 29.9969 42.6428 30.4267C42.1739 30.8565 41.538 31.0979 40.875 31.0979H39.3C38.5 33.1604 37.1 34.9708 35.25 36.3458C35.875 36.5521 36.525 36.6667 37.175 36.8271C50 36.6667 48.5 29.4937 48.5 29.3792C48.4336 27.805 47.6879 26.3195 46.4267 25.2494C45.1655 24.1792 43.4923 23.6122 41.775 23.6729C41.1119 23.6729 40.4761 23.4315 40.0072 23.0017C39.5384 22.5719 39.275 21.989 39.275 21.3812C39.275 20.7735 39.5384 20.1906 40.0072 19.7608C40.4761 19.331 41.1119 19.0896 41.775 19.0896C44.85 19.1583 47.8 20.2125 50.1 22.0687C50.225 21.4042 50.3 20.7167 50.3 20.0292C50.15 17.1875 48.75 14.7125 43.125 14.2312C40 7.44791 32.125 11.2062 32.125 13.3146C32.05 13.8417 32.65 14.9646 32.75 15.0333C33.413 15.0333 34.0489 15.2748 34.5178 15.7045C34.9866 16.1343 35.25 16.7172 35.25 17.325C35.25 18.5854 34.125 19.6167 32.75 19.6167C31.425 19.5708 30.175 19.1125 29.175 18.3333C27.975 19.0437 26.6 19.4792 25.175 19.6167C23.75 19.7312 22.575 18.8146 22.5 17.5542C22.4539 17.2548 22.4751 16.95 22.5622 16.6584C22.6493 16.3668 22.8005 16.0946 23.0066 15.8586C23.2126 15.6225 23.4691 15.4275 23.7603 15.2856C24.0515 15.1437 24.3713 15.0578 24.7 15.0333C25.1 14.9875 27.05 14.7125 27.05 13.2687C27.05 11.7562 27.675 10.3125 28.75 9.16666C26.45 8.59375 23.975 9.35 21.475 12.1229C16.875 11.4583 15 12.0312 13.625 16.5C11.25 17.5771 9.99999 18.3333 9.44999 20.625C12.15 20.1208 14.925 20.3271 17.5 21.1979C18.75 21.6333 19.45 22.9167 18.975 24.1542C18.5 25.3458 17.05 25.9417 15.75 25.5062C13.925 24.7729 11.875 24.7271 9.99999 25.3687C9.19999 25.9875 9.19999 27.2708 9.19999 28.2792C9.19999 29.975 10.125 31.5562 11.7 32.4729C13.025 33.0917 14.5 33.4125 15.975 33.3896C15.6 32.7937 15.275 32.175 15 31.5333C14.8032 30.9445 14.8631 30.3087 15.1672 29.7596C15.4713 29.2105 15.9959 28.7909 16.6306 28.5891C17.2652 28.3872 17.9606 28.4189 18.5703 28.6774C19.1801 28.9358 19.6567 29.401 19.9 29.975C20.9 32.5875 23.45 34.375 26.45 34.6729C29.875 34.5125 32.925 32.6562 34.425 29.7917C35 26.6292 37.775 26.3542 40.825 26.3542ZM45.825 43.4729L44.275 40.4937L42.5 40.8604L45 43.725L45.825 43.4729ZM34.2 23.7417C34.2217 23.1562 33.9981 22.5854 33.575 22.1464C33.1519 21.7074 32.5615 21.4336 31.925 21.3812C30.15 21.2896 28.425 21.8396 27.1 22.9167C25.675 24.2458 24.925 26.0792 25 27.9354C25 28.5432 25.2634 29.1261 25.7322 29.5559C26.2011 29.9856 26.8369 30.2271 27.5 30.2271C28.925 30.2271 30 29.1958 30 27.9354C30 27.3167 30.175 26.6979 30.575 26.1937C30.875 25.9646 31.25 25.85 31.65 25.85C33.025 25.9187 34.2 24.9792 34.2 23.7417Z" fill="black" fill-opacity="0.46"/>
</svg>
