<svg width="60" height="55" viewBox="0 0 60 55" fill="none" xmlns="http://www.w3.org/2000/svg">
<g clip-path="url(#clip0_6_125)">
<path fill-rule="evenodd" clip-rule="evenodd" d="M17.5 20.625C17.5 17.5861 18.817 14.6716 21.1612 12.5227C23.5054 10.3739 26.6848 9.16667 30 9.16667C33.3152 9.16667 36.4946 10.3739 38.8388 12.5227C41.183 14.6716 42.5 17.5861 42.5 20.625C42.5 25.4329 39.025 28.3617 36.18 32.0054C34.39 34.3017 32.8 37.1135 32.505 41.0942C32.3 43.8854 30.1175 45.8333 27.5 45.8333C26.1739 45.8333 24.9021 45.3504 23.9645 44.4909C23.0268 43.6314 22.5 42.4656 22.5 41.25C22.5 37.9179 25.1625 35.585 29.0625 32.725C32.5575 30.1652 36.2375 27.8254 37.425 23.4735C38.2225 20.5494 37.55 18.0492 35.91 16.2777C35.1792 15.4937 34.2736 14.8623 33.2541 14.4263C32.2346 13.9902 31.125 13.7596 30 13.75C28.3372 13.7499 26.7214 14.2563 25.4068 15.1897C24.0922 16.123 23.1532 17.4304 22.7375 18.9063C22.5879 19.4895 22.6934 20.1032 23.0315 20.616C23.3695 21.1288 23.9132 21.4998 24.546 21.6496C25.1788 21.7994 25.8505 21.7161 26.4171 21.4175C26.9838 21.1189 27.4003 20.6288 27.5775 20.0521C27.7161 19.5599 28.0294 19.1239 28.4679 18.8127C28.9065 18.5016 29.4454 18.333 30 18.3333C30.69 18.3333 31.54 18.6404 32.1 19.2431C32.58 19.7633 33.0275 20.7006 32.575 22.3598C31.7425 25.4169 28.4625 27.2983 25.9375 29.1477C22.3375 31.79 17.5 35.4154 17.5 41.25C17.5 43.6812 18.5536 46.0127 20.4289 47.7318C22.3043 49.4509 24.8478 50.4167 27.5 50.4167C33.1675 50.4167 37.14 46.1931 37.495 41.4058C37.7075 38.5115 38.82 36.5017 40.2475 34.6706C43.765 30.1652 47.5 26.5535 47.5 20.625C47.4987 18.4062 46.9953 16.2118 46.0216 14.1804C45.0479 12.149 43.6251 10.3249 41.843 8.82337C40.061 7.3218 37.9586 6.17544 35.6685 5.45673C33.3785 4.73802 30.9508 4.4626 28.5387 4.64788C26.1267 4.83315 23.7827 5.47509 21.6552 6.53313C19.5276 7.59116 17.6625 9.04227 16.178 10.7948C14.6934 12.5472 13.6216 14.563 13.0303 16.7145C12.4389 18.8661 12.3409 21.1067 12.7425 23.2948C12.8657 23.8823 13.2346 24.4023 13.7704 24.7438C14.3062 25.0854 14.9665 25.2213 15.6102 25.1225C16.2539 25.0238 16.8299 24.6982 17.2152 24.2154C17.6006 23.7326 17.7647 23.1308 17.6725 22.5385C17.5572 21.9062 17.4995 21.2661 17.5 20.625Z" fill="black" fill-opacity="0.46"/>
</g>
<defs>
<clipPath id="clip0_6_125">
<rect width="60" height="55" fill="white"/>
</clipPath>
</defs>
</svg>
