<svg width="1173" height="112" viewBox="0 0 1173 112" fill="none" xmlns="http://www.w3.org/2000/svg">
<g filter="url(#filter0_d_6_87)">
<path d="M54.304 97.896C45.9413 97.896 38.2613 95.9333 31.264 92.008C24.2667 88.0827 18.72 82.664 14.624 75.752C10.528 68.7547 8.48 60.8613 8.48 52.072C8.48 43.368 10.528 35.56 14.624 28.648C18.72 21.6507 24.2667 16.1893 31.264 12.264C38.2613 8.33866 45.9413 6.376 54.304 6.376C62.752 6.376 70.432 8.33866 77.344 12.264C84.3413 16.1893 89.8453 21.6507 93.856 28.648C97.952 35.56 100 43.368 100 52.072C100 60.8613 97.952 68.7547 93.856 75.752C89.8453 82.664 84.3413 88.0827 77.344 92.008C70.3467 95.9333 62.6667 97.896 54.304 97.896ZM54.304 81.896C59.68 81.896 64.416 80.7013 68.512 78.312C72.608 75.8373 75.808 72.3387 78.112 67.816C80.416 63.2933 81.568 58.0453 81.568 52.072C81.568 46.0987 80.416 40.8933 78.112 36.456C75.808 31.9333 72.608 28.4773 68.512 26.088C64.416 23.6987 59.68 22.504 54.304 22.504C48.928 22.504 44.1493 23.6987 39.968 26.088C35.872 28.4773 32.672 31.9333 30.368 36.456C28.064 40.8933 26.912 46.0987 26.912 52.072C26.912 58.0453 28.064 63.2933 30.368 67.816C32.672 72.3387 35.872 75.8373 39.968 78.312C44.1493 80.7013 48.928 81.896 54.304 81.896ZM127.156 7.656V62.952C127.156 69.0107 128.735 73.6613 131.892 76.904C135.049 80.0613 139.487 81.64 145.204 81.64C151.007 81.64 155.487 80.0613 158.644 76.904C161.801 73.6613 163.38 69.0107 163.38 62.952V7.656H181.428V62.824C181.428 70.4187 179.764 76.8613 176.436 82.152C173.193 87.3573 168.799 91.2827 163.252 93.928C157.791 96.5733 151.689 97.896 144.948 97.896C138.292 97.896 132.233 96.5733 126.772 93.928C121.396 91.2827 117.129 87.3573 113.972 82.152C110.815 76.8613 109.236 70.4187 109.236 62.824V7.656H127.156ZM240.982 97L221.27 62.184H212.822V97H194.902V7.656H228.438C235.35 7.656 241.238 8.89333 246.102 11.368C250.966 13.7573 254.593 17.0427 256.982 21.224C259.457 25.32 260.694 29.928 260.694 35.048C260.694 40.936 258.987 46.2693 255.574 51.048C252.161 55.7413 247.083 58.984 240.342 60.776L261.718 97H240.982ZM212.822 48.744H227.798C232.662 48.744 236.289 47.592 238.678 45.288C241.067 42.8987 242.262 39.6133 242.262 35.432C242.262 31.336 241.067 28.1787 238.678 25.96C236.289 23.656 232.662 22.504 227.798 22.504H212.822V48.744ZM330.954 7.656C340.341 7.656 348.575 9.49066 355.658 13.16C362.826 16.8293 368.33 22.0773 372.17 28.904C376.095 35.6453 378.058 43.496 378.058 52.456C378.058 61.416 376.095 69.2667 372.17 76.008C368.33 82.664 362.826 87.8267 355.658 91.496C348.575 95.1653 340.341 97 330.954 97H299.722V7.656H330.954ZM330.314 81.768C339.701 81.768 346.954 79.208 352.074 74.088C357.194 68.968 359.754 61.7573 359.754 52.456C359.754 43.1547 357.194 35.9013 352.074 30.696C346.954 25.4053 339.701 22.76 330.314 22.76H317.642V81.768H330.314ZM405.552 22.12V44.52H435.632V58.728H405.552V82.408H439.472V97H387.632V7.52799H439.472V22.12H405.552ZM517.069 35.304C517.069 40.0827 515.917 44.5627 513.613 48.744C511.394 52.9253 507.853 56.296 502.989 58.856C498.21 61.416 492.152 62.696 484.813 62.696H469.837V97H451.917V7.656H484.813C491.725 7.656 497.613 8.85066 502.477 11.24C507.341 13.6293 510.968 16.9147 513.357 21.096C515.832 25.2773 517.069 30.0133 517.069 35.304ZM484.045 48.232C488.994 48.232 492.664 47.1227 495.053 44.904C497.442 42.6 498.637 39.4 498.637 35.304C498.637 26.6 493.773 22.248 484.045 22.248H469.837V48.232H484.045ZM580.736 79.976H545.152L539.264 97H520.448L552.576 7.52799H573.44L605.568 97H586.624L580.736 79.976ZM575.872 65.64L562.944 28.264L550.016 65.64H575.872ZM659.817 97L640.105 62.184H631.657V97H613.737V7.656H647.273C654.185 7.656 660.073 8.89333 664.937 11.368C669.801 13.7573 673.428 17.0427 675.817 21.224C678.292 25.32 679.529 29.928 679.529 35.048C679.529 40.936 677.822 46.2693 674.409 51.048C670.996 55.7413 665.918 58.984 659.177 60.776L680.553 97H659.817ZM631.657 48.744H646.633C651.497 48.744 655.124 47.592 657.513 45.288C659.902 42.8987 661.097 39.6133 661.097 35.432C661.097 31.336 659.902 28.1787 657.513 25.96C655.124 23.656 651.497 22.504 646.633 22.504H631.657V48.744ZM752.697 7.656V22.12H728.889V97H710.969V22.12H687.161V7.656H752.697ZM859.34 7.656V97H841.42V38.888L817.484 97H803.916L779.852 38.888V97H761.932V7.656H782.284L810.7 74.088L839.116 7.656H859.34ZM891.137 22.12V44.52H921.217V58.728H891.137V82.408H925.057V97H873.217V7.52799H925.057V22.12H891.137ZM1013.92 97H995.998L955.422 35.688V97H937.502V7.52799H955.422L995.998 68.968V7.52799H1013.92V97ZM1088.59 7.656V22.12H1064.78V97H1046.86V22.12H1023.05V7.656H1088.59ZM1128.67 97.896C1122.44 97.896 1116.81 96.8293 1111.77 94.696C1106.82 92.5627 1102.9 89.4907 1100 85.48C1097.1 81.4693 1095.6 76.7333 1095.52 71.272H1114.72C1114.97 74.9413 1116.25 77.8427 1118.56 79.976C1120.95 82.1093 1124.19 83.176 1128.29 83.176C1132.47 83.176 1135.75 82.1947 1138.14 80.232C1140.53 78.184 1141.73 75.5387 1141.73 72.296C1141.73 69.6507 1140.92 67.4747 1139.29 65.768C1137.67 64.0613 1135.62 62.7387 1133.15 61.8C1130.76 60.776 1127.43 59.6667 1123.17 58.472C1117.36 56.7653 1112.63 55.1013 1108.96 53.48C1105.37 51.7733 1102.26 49.256 1099.61 45.928C1097.05 42.5147 1095.77 37.992 1095.77 32.36C1095.77 27.0693 1097.1 22.4613 1099.74 18.536C1102.39 14.6107 1106.1 11.624 1110.88 9.576C1115.66 7.44267 1121.12 6.376 1127.26 6.376C1136.48 6.376 1143.94 8.63733 1149.66 13.16C1155.46 17.5973 1158.66 23.8267 1159.26 31.848H1139.55C1139.38 28.776 1138.06 26.2587 1135.58 24.296C1133.19 22.248 1129.99 21.224 1125.98 21.224C1122.48 21.224 1119.67 22.12 1117.53 23.912C1115.49 25.704 1114.46 28.3067 1114.46 31.72C1114.46 34.1093 1115.23 36.1147 1116.77 37.736C1118.39 39.272 1120.35 40.552 1122.65 41.576C1125.04 42.5147 1128.37 43.624 1132.64 44.904C1138.44 46.6107 1143.18 48.3173 1146.85 50.024C1150.52 51.7307 1153.67 54.2907 1156.32 57.704C1158.96 61.1173 1160.29 65.5973 1160.29 71.144C1160.29 75.9227 1159.05 80.36 1156.57 84.456C1154.1 88.552 1150.47 91.8373 1145.69 94.312C1140.92 96.7013 1135.24 97.896 1128.67 97.896Z" fill="#41006A" fill-opacity="0.07" shape-rendering="crispEdges"/>
</g>
<defs>
<filter id="filter0_d_6_87" x="0.480011" y="0.376007" width="1171.81" height="111.52" filterUnits="userSpaceOnUse" color-interpolation-filters="sRGB">
<feFlood flood-opacity="0" result="BackgroundImageFix"/>
<feColorMatrix in="SourceAlpha" type="matrix" values="0 0 0 0 0 0 0 0 0 0 0 0 0 0 0 0 0 0 127 0" result="hardAlpha"/>
<feOffset dx="2" dy="4"/>
<feGaussianBlur stdDeviation="5"/>
<feComposite in2="hardAlpha" operator="out"/>
<feColorMatrix type="matrix" values="0 0 0 0 0 0 0 0 0 0 0 0 0 0 0 0 0 0 0.1 0"/>
<feBlend mode="normal" in2="BackgroundImageFix" result="effect1_dropShadow_6_87"/>
<feBlend mode="normal" in="SourceGraphic" in2="effect1_dropShadow_6_87" result="shape"/>
</filter>
</defs>
</svg>
