<svg width="60" height="41" viewBox="0 0 60 41" fill="none" xmlns="http://www.w3.org/2000/svg">
<path d="M29.9974 0C21.5807 0 14.8411 3.29028 9.9349 7.20642C5.0599 11.0868 1.79948 15.7361 0.257812 18.928C-0.0859375 19.6344 -0.0859375 20.4212 0.257812 21.1275C1.79948 24.3194 5.0599 28.9688 9.9349 32.8491C14.8411 36.7653 21.5807 40.0556 29.9974 40.0556C38.4141 40.0556 45.1536 36.7653 50.0599 32.8491C54.9349 28.9598 58.1953 24.3194 59.7474 21.1275C60.0911 20.4212 60.0911 19.6344 59.7474 18.928C58.1953 15.7361 54.9349 11.0868 50.0599 7.20642C45.1536 3.29028 38.4141 0 29.9974 0ZM14.9974 20.0278C14.9974 16.6131 16.5777 13.3383 19.3908 10.9238C22.2038 8.50925 26.0191 7.15278 29.9974 7.15278C33.9756 7.15278 37.791 8.50925 40.604 10.9238C43.417 13.3383 44.9974 16.6131 44.9974 20.0278C44.9974 23.4424 43.417 26.7172 40.604 29.1318C37.791 31.5463 33.9756 32.9028 29.9974 32.9028C26.0191 32.9028 22.2038 31.5463 19.3908 29.1318C16.5777 26.7172 14.9974 23.4424 14.9974 20.0278ZM29.9974 14.3056C29.9974 17.4617 27.0078 20.0278 23.3307 20.0278C22.5911 20.0278 21.8828 19.9205 21.2161 19.7327C20.6432 19.5718 19.9766 19.8758 19.9974 20.3944C20.0286 21.0113 20.1328 21.6282 20.3307 22.2451C21.7578 26.8229 27.2474 29.541 32.5807 28.3161C37.9141 27.0911 41.0807 22.3793 39.6536 17.8015C38.4974 14.091 34.6745 11.5964 30.4245 11.4444C29.8203 11.4266 29.4661 11.9898 29.6536 12.4905C29.8724 13.0628 29.9974 13.6707 29.9974 14.3056Z" fill="black" fill-opacity="0.46"/>
</svg>
